<mxfile host="Electron" modified="2023-12-01T02:58:35.171Z" agent="Mozilla/5.0 (Windows NT 10.0; Win64; x64) AppleWebKit/537.36 (KHTML, like Gecko) draw.io/22.1.2 Chrome/114.0.5735.289 Electron/25.9.4 Safari/537.36" etag="d0BLkd3w9kox6NiO3NiK" version="22.1.2" type="device">
  <diagram name="Page-1" id="2c0d36ab-eaac-3732-788b-9136903baeff">
    <mxGraphModel dx="2600" dy="1967" grid="1" gridSize="10" guides="1" tooltips="1" connect="1" arrows="1" fold="1" page="1" pageScale="1.5" pageWidth="1169" pageHeight="827" background="none" math="0" shadow="0">
      <root>
        <mxCell id="0" />
        <mxCell id="1" parent="0" />
        <mxCell id="123" value="" style="fillColor=#AE4132;strokeColor=none;opacity=30;" parent="1" vertex="1">
          <mxGeometry x="747" y="175.50000000000003" width="210" height="99.99999999999994" as="geometry" />
        </mxCell>
        <mxCell id="2" value="Landing Page" style="rounded=1;fillColor=#23445D;gradientColor=none;strokeColor=none;fontColor=#FFFFFF;fontStyle=1;fontFamily=Tahoma;fontSize=20;spacing=3;shadow=1;" parent="1" vertex="1">
          <mxGeometry x="757" y="185.5" width="190" height="80" as="geometry" />
        </mxCell>
        <mxCell id="8r4pusjqXIMK8luUKorm-143" value="" style="edgeStyle=orthogonalEdgeStyle;rounded=0;orthogonalLoop=1;jettySize=auto;html=1;exitX=0.133;exitY=1.014;exitDx=0;exitDy=0;exitPerimeter=0;" edge="1" parent="1" source="10" target="8r4pusjqXIMK8luUKorm-142">
          <mxGeometry relative="1" as="geometry" />
        </mxCell>
        <mxCell id="8r4pusjqXIMK8luUKorm-145" value="" style="edgeStyle=orthogonalEdgeStyle;rounded=0;orthogonalLoop=1;jettySize=auto;html=1;exitX=0.856;exitY=0.967;exitDx=0;exitDy=0;exitPerimeter=0;" edge="1" parent="1" source="10" target="8r4pusjqXIMK8luUKorm-144">
          <mxGeometry relative="1" as="geometry" />
        </mxCell>
        <mxCell id="10" value="Contact" style="rounded=1;fillColor=#23445D;gradientColor=none;strokeColor=none;fontColor=#FFFFFF;fontStyle=1;fontFamily=Tahoma;fontSize=20;" parent="1" vertex="1">
          <mxGeometry x="1430" y="395.5" width="190" height="80" as="geometry" />
        </mxCell>
        <mxCell id="8r4pusjqXIMK8luUKorm-129" value="" style="edgeStyle=orthogonalEdgeStyle;rounded=0;orthogonalLoop=1;jettySize=auto;html=1;" edge="1" parent="1" source="12" target="8r4pusjqXIMK8luUKorm-128">
          <mxGeometry relative="1" as="geometry">
            <Array as="points">
              <mxPoint x="850" y="510" />
              <mxPoint x="665" y="510" />
            </Array>
          </mxGeometry>
        </mxCell>
        <mxCell id="8r4pusjqXIMK8luUKorm-130" style="edgeStyle=orthogonalEdgeStyle;rounded=0;orthogonalLoop=1;jettySize=auto;html=1;entryX=0.5;entryY=0;entryDx=0;entryDy=0;" edge="1" parent="1" source="8r4pusjqXIMK8luUKorm-148" target="8r4pusjqXIMK8luUKorm-138">
          <mxGeometry relative="1" as="geometry">
            <mxPoint x="750" y="770" as="targetPoint" />
            <Array as="points">
              <mxPoint x="705" y="680" />
            </Array>
          </mxGeometry>
        </mxCell>
        <mxCell id="8r4pusjqXIMK8luUKorm-141" style="edgeStyle=orthogonalEdgeStyle;rounded=0;orthogonalLoop=1;jettySize=auto;html=1;entryX=0.5;entryY=0;entryDx=0;entryDy=0;" edge="1" parent="1" source="12" target="8r4pusjqXIMK8luUKorm-136">
          <mxGeometry relative="1" as="geometry">
            <mxPoint x="1090" y="510" as="targetPoint" />
            <Array as="points">
              <mxPoint x="850" y="510" />
              <mxPoint x="1072" y="510" />
            </Array>
          </mxGeometry>
        </mxCell>
        <mxCell id="12" value="About Us" style="rounded=1;fillColor=#23445D;gradientColor=none;strokeColor=none;fontColor=#FFFFFF;fontStyle=1;fontFamily=Tahoma;fontSize=20;" parent="1" vertex="1">
          <mxGeometry x="754.9999999999999" y="395.5" width="190" height="80" as="geometry" />
        </mxCell>
        <mxCell id="8r4pusjqXIMK8luUKorm-127" style="edgeStyle=orthogonalEdgeStyle;rounded=0;orthogonalLoop=1;jettySize=auto;html=1;fontStyle=1" edge="1" parent="1" source="13" target="8r4pusjqXIMK8luUKorm-126">
          <mxGeometry relative="1" as="geometry" />
        </mxCell>
        <mxCell id="13" value="Get StartedÂ " style="rounded=1;fillColor=#23445D;gradientColor=none;strokeColor=none;fontColor=#FFFFFF;fontStyle=1;fontFamily=Tahoma;fontSize=20;" parent="1" vertex="1">
          <mxGeometry x="300" y="395.5" width="190" height="80" as="geometry" />
        </mxCell>
        <mxCell id="59" value="" style="edgeStyle=elbowEdgeStyle;elbow=vertical;strokeWidth=2;rounded=0;exitX=0.5;exitY=1;exitDx=0;exitDy=0;" parent="1" source="123" target="12" edge="1">
          <mxGeometry x="347" y="225.5" width="100" height="100" as="geometry">
            <mxPoint x="1125" y="325.5" as="sourcePoint" />
            <mxPoint x="1739.9999999999998" y="405.5" as="targetPoint" />
          </mxGeometry>
        </mxCell>
        <mxCell id="61" value="" style="edgeStyle=elbowEdgeStyle;elbow=vertical;strokeWidth=2;rounded=0;exitX=0.5;exitY=1;exitDx=0;exitDy=0;" parent="1" source="123" target="13" edge="1">
          <mxGeometry x="-23" y="135.5" width="100" height="100" as="geometry">
            <mxPoint x="1125" y="325.5" as="sourcePoint" />
            <mxPoint x="350" y="195.5" as="targetPoint" />
          </mxGeometry>
        </mxCell>
        <mxCell id="8r4pusjqXIMK8luUKorm-123" value="" style="edgeStyle=elbowEdgeStyle;elbow=vertical;strokeWidth=2;rounded=0;entryX=0.5;entryY=0;entryDx=0;entryDy=0;exitX=0.5;exitY=1;exitDx=0;exitDy=0;" edge="1" parent="1" source="123" target="10">
          <mxGeometry x="-23" y="135.5" width="100" height="100" as="geometry">
            <mxPoint x="1125" y="325.5" as="sourcePoint" />
            <mxPoint x="485" y="406" as="targetPoint" />
          </mxGeometry>
        </mxCell>
        <mxCell id="8r4pusjqXIMK8luUKorm-126" value="Login" style="rounded=1;fillColor=#23445D;gradientColor=none;strokeColor=none;fontColor=#FFFFFF;fontStyle=1;fontFamily=Tahoma;fontSize=20;" vertex="1" parent="1">
          <mxGeometry x="100" y="630" width="190" height="80" as="geometry" />
        </mxCell>
        <mxCell id="8r4pusjqXIMK8luUKorm-128" value="Welcome Message" style="whiteSpace=wrap;html=1;fontSize=20;fontFamily=Tahoma;fillColor=#23445D;strokeColor=none;fontColor=#FFFFFF;rounded=1;gradientColor=none;fontStyle=1;" vertex="1" parent="1">
          <mxGeometry x="550" y="550" width="230" height="94.5" as="geometry" />
        </mxCell>
        <mxCell id="8r4pusjqXIMK8luUKorm-136" value="Profile page setup" style="whiteSpace=wrap;html=1;fontSize=20;fontFamily=Tahoma;fillColor=#23445D;strokeColor=none;fontColor=#FFFFFF;rounded=1;gradientColor=none;fontStyle=1;" vertex="1" parent="1">
          <mxGeometry x="957" y="550" width="230" height="94.5" as="geometry" />
        </mxCell>
        <mxCell id="8r4pusjqXIMK8luUKorm-137" value="Register Instructions" style="whiteSpace=wrap;html=1;fontSize=20;fontFamily=Tahoma;fillColor=#23445D;strokeColor=none;fontColor=#FFFFFF;rounded=1;gradientColor=none;fontStyle=1;" vertex="1" parent="1">
          <mxGeometry x="877" y="770" width="253" height="94.5" as="geometry" />
        </mxCell>
        <mxCell id="8r4pusjqXIMK8luUKorm-138" value="Our Mission" style="whiteSpace=wrap;html=1;fontSize=20;fontFamily=Tahoma;fillColor=#23445D;strokeColor=none;fontColor=#FFFFFF;rounded=1;gradientColor=none;fontStyle=1;" vertex="1" parent="1">
          <mxGeometry x="590" y="770" width="230" height="94.5" as="geometry" />
        </mxCell>
        <mxCell id="8r4pusjqXIMK8luUKorm-139" style="edgeStyle=orthogonalEdgeStyle;rounded=0;orthogonalLoop=1;jettySize=auto;html=1;exitX=0.5;exitY=1;exitDx=0;exitDy=0;entryX=0.455;entryY=-0.022;entryDx=0;entryDy=0;entryPerimeter=0;" edge="1" parent="1" source="12" target="8r4pusjqXIMK8luUKorm-137">
          <mxGeometry relative="1" as="geometry">
            <mxPoint x="992" y="750" as="targetPoint" />
            <mxPoint x="860" y="486" as="sourcePoint" />
            <Array as="points">
              <mxPoint x="850" y="680" />
              <mxPoint x="992" y="680" />
            </Array>
          </mxGeometry>
        </mxCell>
        <mxCell id="8r4pusjqXIMK8luUKorm-142" value="Email address" style="whiteSpace=wrap;html=1;fontSize=20;fontFamily=Tahoma;fillColor=#23445D;strokeColor=none;fontColor=#FFFFFF;rounded=1;gradientColor=none;fontStyle=1;" vertex="1" parent="1">
          <mxGeometry x="1300" y="582.25" width="185" height="60" as="geometry" />
        </mxCell>
        <mxCell id="8r4pusjqXIMK8luUKorm-144" value="Github Page" style="whiteSpace=wrap;html=1;fontSize=20;fontFamily=Tahoma;fillColor=#23445D;strokeColor=none;fontColor=#FFFFFF;rounded=1;gradientColor=none;fontStyle=1;" vertex="1" parent="1">
          <mxGeometry x="1520" y="580" width="145" height="64.5" as="geometry" />
        </mxCell>
        <mxCell id="8r4pusjqXIMK8luUKorm-149" value="" style="edgeStyle=orthogonalEdgeStyle;rounded=0;orthogonalLoop=1;jettySize=auto;html=1;entryX=0.5;entryY=0;entryDx=0;entryDy=0;" edge="1" parent="1" source="12" target="8r4pusjqXIMK8luUKorm-148">
          <mxGeometry relative="1" as="geometry">
            <mxPoint x="705" y="770" as="targetPoint" />
            <mxPoint x="850" y="476" as="sourcePoint" />
            <Array as="points">
              <mxPoint x="850" y="680" />
            </Array>
          </mxGeometry>
        </mxCell>
        <mxCell id="8r4pusjqXIMK8luUKorm-148" value="" style="fillColor=#0050ef;strokeColor=#001DBC;opacity=30;fontColor=#ffffff;" vertex="1" parent="1">
          <mxGeometry x="220" y="365.5" width="1450" height="140" as="geometry" />
        </mxCell>
        <mxCell id="8r4pusjqXIMK8luUKorm-150" value="" style="fillColor=#EFBFE9;strokeColor=#001DBC;opacity=30;fontColor=#ffffff;" vertex="1" parent="1">
          <mxGeometry x="40" y="527.25" width="1730" height="412.75" as="geometry" />
        </mxCell>
      </root>
    </mxGraphModel>
  </diagram>
</mxfile>
